<?xml version="1.0" standalone="no"?>
<!DOCTYPE svg PUBLIC "-//W3C//DTD SVG 20010904//EN"
 "http://www.w3.org/TR/2001/REC-SVG-20010904/DTD/svg10.dtd">
<svg version="1.0" xmlns="http://www.w3.org/2000/svg"
 width="306.000000pt" height="373.000000pt" viewBox="0 0 306.000000 373.000000"
 preserveAspectRatio="xMidYMid meet">

<g transform="translate(0.000000,373.000000) scale(0.100000,-0.100000)"
fill="#000000" stroke="none">
<path d="M693 3713 c-28 -16 -441 -411 -615 -587 l-58 -60 0 -1441 0 -1442 31
-46 c17 -26 47 -59 67 -75 76 -59 21 -57 1422 -57 1140 0 1290 2 1325 16 70
27 103 52 139 108 l36 54 0 402 0 402 -26 24 c-19 18 -37 24 -71 24 -39 0 -49
-4 -74 -35 l-29 -34 0 -362 c0 -316 -2 -365 -16 -378 -14 -14 -145 -16 -1292
-16 -787 0 -1283 4 -1292 10 -13 8 -15 172 -18 1355 l-2 1345 279 0 280 0 26
28 c15 15 31 37 36 50 5 13 9 161 9 330 0 287 -1 309 -20 339 -19 31 -65 63
-92 63 -7 0 -28 -8 -45 -17z m-64 -468 l2 -115 -123 0 -123 0 118 115 c65 63
120 115 122 115 2 0 4 -52 4 -115z"/>
<path d="M1190 3712 c-58 -39 -79 -103 -45 -132 8 -7 15 -18 15 -26 0 -7 6
-16 13 -21 6 -4 375 -10 819 -13 714 -4 809 -7 823 -21 12 -12 17 -44 20 -140
2 -68 1 -150 -2 -181 l-6 -58 -809 0 c-513 0 -816 -4 -828 -10 -10 -5 -28 -26
-40 -45 -26 -43 -21 -77 18 -117 l26 -28 823 0 823 0 0 -723 0 -723 35 -34
c42 -41 86 -45 133 -11 l32 22 0 1046 0 1046 -37 58 c-21 31 -51 65 -68 76
-82 49 -46 47 -910 50 -751 2 -812 1 -835 -15z"/>
<path d="M612 2563 c-13 -3 -32 -19 -43 -36 -18 -30 -19 -49 -17 -312 3 -265
4 -282 23 -301 11 -12 30 -26 42 -33 31 -16 1795 -16 1826 0 12 7 31 21 42 33
19 19 20 36 23 298 3 303 -1 328 -54 348 -25 10 -1793 12 -1842 3z m1686 -335
l3 -138 -771 0 -770 0 0 140 0 140 768 -2 767 -3 3 -137z"/>
<path d="M609 1605 c-32 -18 -59 -57 -59 -87 0 -40 36 -86 72 -93 18 -3 221
-5 451 -3 l419 3 19 24 c43 53 35 111 -20 148 l-34 23 -411 0 c-335 -1 -416
-3 -437 -15z"/>
<path d="M1970 1453 c-71 -26 -129 -61 -180 -110 -33 -32 -60 -64 -60 -71 0
-7 -7 -24 -16 -37 -18 -27 -54 -155 -54 -190 0 -44 38 -162 69 -215 63 -105
165 -175 286 -195 219 -35 426 97 479 306 20 82 20 126 0 208 -29 117 -109
213 -228 275 -67 35 -72 36 -175 35 -58 0 -113 -3 -121 -6z m232 -231 c90 -59
123 -176 75 -267 -92 -172 -338 -148 -392 39 -18 61 -14 90 22 156 55 104 196
138 295 72z"/>
<path d="M612 1113 c-28 -6 -62 -58 -62 -97 0 -20 11 -39 36 -62 l35 -34 347
0 c343 1 347 1 373 23 46 38 53 63 34 112 -12 33 -24 46 -47 54 -30 11 -664
14 -716 4z"/>
</g>
</svg>
